<svg xmlns="http://www.w3.org/2000/svg" xmlns:xlink="http://www.w3.org/1999/xlink" width="500" zoomAndPan="magnify" viewBox="0 0 375 374.999991" height="500" preserveAspectRatio="xMidYMid meet" version="1.0"><defs><g/><clipPath id="05f21cf1b2"><path d="M 195 39 L 268 39 L 268 194 L 195 194 Z M 195 39 " clip-rule="nonzero"/></clipPath><clipPath id="fe222b2435"><path d="M 183.742188 45.726562 L 264.269531 37.488281 L 279.714844 188.472656 L 199.191406 196.710938 Z M 183.742188 45.726562 " clip-rule="nonzero"/></clipPath><clipPath id="6a43b2d60c"><path d="M 183.742188 45.726562 L 264.269531 37.488281 L 279.714844 188.472656 L 199.191406 196.710938 Z M 183.742188 45.726562 " clip-rule="nonzero"/></clipPath><clipPath id="097dc5566b"><path d="M 183.742188 45.726562 L 264.269531 37.488281 L 279.714844 188.472656 L 199.191406 196.710938 Z M 183.742188 45.726562 " clip-rule="nonzero"/></clipPath></defs><rect x="-37.5" width="450" fill="#ffffff" y="-37.499999" height="449.999989" fill-opacity="1"/><rect x="-37.5" width="450" fill="#ffffff" y="-37.499999" height="449.999989" fill-opacity="1"/><g clip-path="url(#05f21cf1b2)"><g clip-path="url(#fe222b2435)"><g clip-path="url(#6a43b2d60c)"><g clip-path="url(#097dc5566b)"><path fill="#000000" d="M 251.9375 39.085938 C 244.722656 39.546875 239.371094 45.917969 240.101562 53.046875 C 240.421875 56.183594 241.859375 58.9375 243.992188 60.949219 C 244.503906 61.433594 244.769531 62.125 244.707031 62.824219 C 242.125 91.621094 249.386719 116.324219 254.773438 134.675781 C 257.089844 142.566406 259.089844 149.382812 259.597656 154.339844 C 261.199219 169.972656 249.792969 183.984375 234.175781 185.582031 C 218.554688 187.179688 204.550781 175.765625 202.949219 160.136719 C 202.871094 159.375 203.011719 158.933594 203.292969 158.710938 C 204.191406 157.996094 206.613281 159.625 208.039062 160.710938 C 206.832031 157.140625 205.511719 151.828125 205.503906 145.324219 C 205.488281 137.207031 207.523438 130.796875 209.089844 126.929688 C 209.089844 126.929688 200.074219 135.25 197 146.386719 C 195.683594 151.128906 195.019531 155.960938 195.527344 160.894531 C 196.019531 165.71875 197.441406 170.316406 199.757812 174.527344 C 201.988281 178.601562 204.960938 182.160156 208.574219 185.117188 C 212.1875 188.0625 216.273438 190.253906 220.722656 191.613281 C 225.328125 193.03125 230.101562 193.492188 234.921875 193 C 239.742188 192.507812 244.335938 191.085938 248.542969 188.765625 C 252.613281 186.535156 256.167969 183.5625 259.125 179.945312 C 262.078125 176.328125 264.253906 172.242188 265.613281 167.789062 C 267.03125 163.183594 267.492188 158.40625 267 153.582031 C 266.421875 147.949219 264.328125 140.828125 261.902344 132.570312 C 256.875 115.472656 250.183594 92.671875 251.882812 66.527344 C 251.960938 65.398438 252.84375 64.492188 253.976562 64.375 C 253.988281 64.375 253.988281 64.375 254 64.371094 C 261.121094 63.644531 266.277344 57.121094 265.261719 49.949219 C 264.363281 43.433594 258.519531 38.671875 251.9375 39.085938 Z M 257.953125 51.695312 C 257.988281 54.203125 256.191406 56.410156 253.730469 56.878906 C 250.519531 57.5 247.542969 55.074219 247.5 51.800781 C 247.464844 49.296875 249.257812 47.089844 251.71875 46.617188 C 254.933594 46.007812 257.910156 48.433594 257.953125 51.695312 Z M 257.953125 51.695312 " fill-opacity="1" fill-rule="nonzero"/></g></g></g></g><path stroke-linecap="butt" transform="matrix(2.58643, 0, 0, 2.58643, 17.333033, 44.251648)" fill="none" stroke-linejoin="miter" d="M 29.528729 33.251334 L 29.528729 18.92929 L 37.02881 18.92929 L 37.02881 57.000585 L 29.528729 57.000585 L 29.528729 39.657969 L 12.473067 39.657969 L 12.473067 57.000585 L 4.947311 57.000585 L 4.947311 18.92929 L 12.473067 18.92929 L 12.473067 33.251334 Z M 46.141878 57.000585 L 46.141878 16.742396 L 53.355004 16.742396 L 53.355004 39.08406 L 54.057288 39.08406 L 62.363862 28.277962 L 69.681199 28.277962 L 69.681199 28.876035 L 59.917198 41.480884 L 70.774646 56.349652 L 70.774646 57.000585 L 63.171865 57.000585 L 54.057288 44.89111 L 53.355004 44.89111 L 53.355004 57.000585 Z M 46.141878 57.000585 " stroke="#000000" stroke-width="6.266663" stroke-opacity="1" stroke-miterlimit="4"/><path stroke-linecap="butt" transform="matrix(2.58643, 0, 0, 2.58643, 17.333033, 44.251648)" fill="none" stroke-linejoin="miter" d="M 100.124038 68.640361 L 100.124038 28.277962 L 107.337165 28.277962 L 107.337165 32.028003 L 107.885399 32.132212 C 108.73569 30.673276 109.872935 29.575298 111.295625 28.838278 C 112.719825 28.099748 114.385671 27.731238 116.296183 27.731238 C 118.6039 27.731238 120.623153 28.277962 122.34941 29.371409 C 124.077177 30.464856 125.422842 32.127682 126.386405 34.358374 C 127.349968 36.589067 127.831749 39.352891 127.831749 42.651356 C 127.831749 45.933208 127.324293 48.684949 126.30787 50.90658 C 125.292958 53.128211 123.88235 54.791037 122.076048 55.893545 C 120.271256 56.996054 118.188571 57.547309 115.826484 57.547309 C 114.038305 57.547309 112.493282 57.246762 111.191415 56.648689 C 109.889549 56.049105 108.78704 55.115748 107.885399 53.848618 L 107.337165 53.952828 L 107.337165 68.640361 Z M 113.822334 51.427629 C 115.974492 51.427629 117.605601 50.723836 118.717172 49.317759 C 119.828742 47.911683 120.384528 45.690052 120.384528 42.651356 C 120.384528 39.61417 119.828742 37.388008 118.717172 35.97287 C 117.605601 34.557732 115.974492 33.850918 113.822334 33.850918 C 111.807612 33.850918 110.21124 34.578876 109.030196 36.037813 C 107.850662 37.496749 107.26014 39.700257 107.26014 42.651356 C 107.26014 45.585842 107.850662 47.781798 109.030196 49.240735 C 110.21124 50.698161 111.807612 51.427629 113.822334 51.427629 Z M 113.822334 51.427629 " stroke="#000000" stroke-width="6.266663" stroke-opacity="1" stroke-miterlimit="4"/><g fill="#38b6ff" fill-opacity="1"><g transform="translate(17.333033, 191.678174)"><g><path d="M 76.375 -61.421875 L 76.375 -98.46875 L 95.78125 -98.46875 L 95.78125 0 L 76.375 0 L 76.375 -44.859375 L 32.265625 -44.859375 L 32.265625 0 L 12.796875 0 L 12.796875 -98.46875 L 32.265625 -98.46875 L 32.265625 -61.421875 Z M 76.375 -61.421875 "/></g></g></g><g fill="#38b6ff" fill-opacity="1"><g transform="translate(125.965985, 191.678174)"><g><path d="M 10.703125 0 L 10.703125 -104.125 L 29.359375 -104.125 L 29.359375 -46.34375 L 31.1875 -46.34375 L 52.671875 -74.296875 L 71.59375 -74.296875 L 71.59375 -72.734375 L 46.34375 -40.140625 L 74.421875 -1.6875 L 74.421875 0 L 54.75 0 L 31.1875 -31.3125 L 29.359375 -31.3125 L 29.359375 0 Z M 10.703125 0 "/></g></g></g><g fill="#38b6ff" fill-opacity="1"><g transform="translate(200.525039, 191.678174)"><g/></g></g><g fill="#38b6ff" fill-opacity="1"><g transform="translate(233.054325, 191.678174)"><g/></g></g><g fill="#38b6ff" fill-opacity="1"><g transform="translate(265.589926, 191.678174)"><g><path d="M 10.703125 30.109375 L 10.703125 -74.296875 L 29.359375 -74.296875 L 29.359375 -64.59375 L 30.78125 -64.328125 C 32.976562 -68.097656 35.914062 -70.9375 39.59375 -72.84375 C 43.28125 -74.75 47.59375 -75.703125 52.53125 -75.703125 C 58.507812 -75.703125 63.726562 -74.285156 68.1875 -71.453125 C 72.65625 -68.628906 76.132812 -64.332031 78.625 -58.5625 C 81.125 -52.789062 82.375 -45.640625 82.375 -37.109375 C 82.375 -28.617188 81.054688 -21.5 78.421875 -15.75 C 75.796875 -10.007812 72.148438 -5.710938 67.484375 -2.859375 C 62.816406 -0.00390625 57.429688 1.421875 51.328125 1.421875 C 46.703125 1.421875 42.703125 0.644531 39.328125 -0.90625 C 35.960938 -2.457031 33.113281 -4.875 30.78125 -8.15625 L 29.359375 -7.875 L 29.359375 30.109375 Z M 46.140625 -14.40625 C 51.703125 -14.40625 55.921875 -16.222656 58.796875 -19.859375 C 61.671875 -23.503906 63.109375 -29.253906 63.109375 -37.109375 C 63.109375 -44.960938 61.671875 -50.71875 58.796875 -54.375 C 55.921875 -58.039062 51.703125 -59.875 46.140625 -59.875 C 40.929688 -59.875 36.796875 -57.988281 33.734375 -54.21875 C 30.679688 -50.445312 29.15625 -44.742188 29.15625 -37.109375 C 29.15625 -29.523438 30.679688 -23.84375 33.734375 -20.0625 C 36.796875 -16.289062 40.929688 -14.40625 46.140625 -14.40625 Z M 46.140625 -14.40625 "/></g></g></g><g fill="#000000" fill-opacity="1"><g transform="translate(219.440547, 196.250946)"><g><path d="M -35.828125 34.40625 L -38.546875 26.984375 L 5.796875 30.265625 L 7.890625 36.03125 L -23.921875 67.078125 L -26.640625 59.640625 L -2.84375 37.234375 L -3.171875 36.296875 Z M -35.828125 34.40625 "/></g></g></g><g fill="#000000" fill-opacity="1"><g transform="translate(170.962819, 213.919365)"><g><path d="M -12.109375 3.921875 C -10.421875 3.304688 -8.914062 3.289062 -7.59375 3.875 C -6.269531 4.457031 -5.320312 5.535156 -4.75 7.109375 C -4.1875 8.648438 -4.210938 10.097656 -4.828125 11.453125 C -5.453125 12.804688 -6.609375 13.789062 -8.296875 14.40625 C -10.015625 15.03125 -11.535156 15.039062 -12.859375 14.4375 C -14.179688 13.84375 -15.128906 12.765625 -15.703125 11.203125 C -16.273438 9.640625 -16.238281 8.1875 -15.59375 6.84375 C -14.957031 5.507812 -13.796875 4.535156 -12.109375 3.921875 Z M -12.109375 3.921875 "/></g></g></g><g fill="#000000" fill-opacity="1"><g transform="translate(147.012776, 222.648309)"><g><path d="M -37.4375 3.109375 L -30.453125 0.5625 L 22.203125 69.734375 L 15.265625 72.265625 Z M -37.4375 3.109375 "/></g></g></g><g fill="#000000" fill-opacity="1"><g transform="translate(111.865312, 235.458318)"><g><path d="M -33.359375 44.53125 L -1.578125 13.515625 L 1.140625 20.9375 L -22.640625 43.390625 L -22.3125 44.328125 L 10.328125 46.171875 L 13.046875 53.609375 L -31.265625 50.296875 Z M -33.359375 44.53125 "/></g></g></g><g fill="#000000" fill-opacity="1"><g transform="translate(63.520887, 253.078153)"><g><path d="M -35.828125 34.40625 L -38.546875 26.984375 L 5.796875 30.265625 L 7.890625 36.03125 L -23.921875 67.078125 L -26.640625 59.640625 L -2.84375 37.234375 L -3.171875 36.296875 Z M -35.828125 34.40625 "/></g></g></g></svg>